HIERARCHY
ROOT Hips
{
    OFFSET 0.000000 0.000000 0.000000
    CHANNELS 6 Xposition Yposition Zposition Zrotation Xrotation Yrotation
    JOINT Spine
    {
        OFFSET -0.000000 14.517291 0.000000
        CHANNELS 3 Zrotation Xrotation Yrotation
        JOINT Spine1
        {
            OFFSET -0.000000 37.558300 0.000000
            CHANNELS 3 Zrotation Xrotation Yrotation
            JOINT Neck
            {
                OFFSET -0.000000 37.404057 3.400369
                CHANNELS 3 Zrotation Xrotation Yrotation
                JOINT Head
                {
                    OFFSET -0.000000 24.785618 -3.540803
                    CHANNELS 3 Zrotation Xrotation Yrotation
                    End Site
                    {
                        OFFSET -0.000000 35.408028 0.000000
                    }
                }
            }
            JOINT LeftShoulder
            {
                OFFSET 6.992933 33.973492 -0.192664
                CHANNELS 3 Zrotation Xrotation Yrotation
                JOINT LeftArm
                {
                    OFFSET 21.527611 0.000000 0.000000
                    CHANNELS 3 Zrotation Xrotation Yrotation
                    JOINT LeftForeArm
                    {
                        OFFSET 56.353916 0.000000 0.000000
                        CHANNELS 3 Zrotation Xrotation Yrotation
                        JOINT LeftHand
                        {
                            OFFSET 47.774071 0.000000 0.000000
                            CHANNELS 3 Zrotation Xrotation Yrotation
                            End Site
                            {
                                OFFSET 26.556021 0.000000 0.000000
                            }
                        }
                    }
                }
            }
            JOINT RightShoulder
            {
                OFFSET -7.065357 33.973492 -0.192664
                CHANNELS 3 Zrotation Xrotation Yrotation
                JOINT RightArm
                {
                    OFFSET -21.527611 0.000000 0.000000
                    CHANNELS 3 Zrotation Xrotation Yrotation
                    JOINT RightForeArm
                    {
                        OFFSET -56.353916 0.000000 0.000000
                        CHANNELS 3 Zrotation Xrotation Yrotation
                        JOINT RightHand
                        {
                            OFFSET -47.774071 0.000000 0.000000
                            CHANNELS 3 Zrotation Xrotation Yrotation
                            End Site
                            {
                                OFFSET -26.556021 0.000000 0.000000
                            }
                        }
                    }
                }
            }
        }
    }
    JOINT LeftUpLeg
    {
        OFFSET 17.704014 0.000000 0.000000
        CHANNELS 3 Zrotation Xrotation Yrotation
        JOINT LeftLeg
        {
            OFFSET -0.000000 -81.181816 0.000000
            CHANNELS 3 Zrotation Xrotation Yrotation
            JOINT LeftFoot
            {
                OFFSET -0.000000 -62.821102 0.000000
                CHANNELS 3 Zrotation Xrotation Yrotation
                JOINT LeftToeBase
                {
                    OFFSET -0.000000 -11.507608 26.556021
                    CHANNELS 3 Zrotation Xrotation Yrotation
                    End Site
                    {
                        OFFSET -0.000000 0.000000 7.081605
                    }
                }
            }
        }
    }
    JOINT RightUpLeg
    {
        OFFSET -17.704014 0.000000 0.000000
        CHANNELS 3 Zrotation Xrotation Yrotation
        JOINT RightLeg
        {
            OFFSET -0.000000 -81.181816 0.000000
            CHANNELS 3 Zrotation Xrotation Yrotation
            JOINT RightFoot
            {
                OFFSET -0.000000 -62.821102 0.000000
                CHANNELS 3 Zrotation Xrotation Yrotation
                JOINT RightToeBase
                {
                    OFFSET -0.000000 -11.507608 26.556021
                    CHANNELS 3 Zrotation Xrotation Yrotation
                    End Site
                    {
                        OFFSET -0.000000 0.000000 7.081605
                    }
                }
            }
        }
    }
}
MOTION
Frames:    13
Frame Time:    0.008333
25.487459    146.957565    64.281471    6.866400    0.242846    -77.893936    1.906177    0.592276    4.043683    -1.815789    0.998036    1.366945    14.984266    4.343830    12.612255    -11.055107    1.441841    10.053484    8.786280    4.265945    -12.466017    -12.947966    -2.487873    -17.783566    13.282307    -0.524224    -52.441875    -1.509414    6.602749    -40.921627    -11.705800    -0.010614    -4.006660    28.106836    -23.113081    39.419628    5.647227    -21.887550    105.092148    13.596426    -25.305344    29.970058    34.017212    -23.537771    22.811447    -35.688992    44.733284    5.147520    -0.621641    -18.679876    48.227276    0.000000    0.000000    0.000000    -39.938019    -16.917517    -48.958405    12.393143    36.353901    -24.812571    4.399389    3.454233    -15.600417    0.000000    0.000000    0.000000    
25.481394    146.930099    64.284637    6.887099    0.239186    -77.916473    1.890535    0.582898    4.028564    -1.801927    1.003819    1.361781    14.979196    4.298788    12.614150    -11.031422    1.496748    10.058190    8.794177    4.244847    -12.465785    -12.950015    -2.464901    -17.787716    13.287821    -0.593021    -52.363987    -1.496564    6.522147    -40.989109    -11.697309    -0.009336    -4.011201    28.125164    -23.067429    39.447647    5.590596    -21.975088    105.087425    13.656558    -25.304035    30.004719    34.035332    -23.565132    22.781382    -35.757030    44.753658    5.202262    -0.616644    -18.699553    48.254341    0.000000    0.000000    0.000000    -39.978615    -16.957375    -48.928143    12.445780    36.411407    -24.825138    4.406549    3.421181    -15.615993    0.000000    0.000000    0.000000    
25.471756    146.901627    64.283752    6.908921    0.242157    -77.936020    1.870658    0.552930    4.007108    -1.775128    1.032473    1.354651    14.991148    4.284623    12.619065    -11.046188    1.511736    10.059589    8.805839    4.218734    -12.466664    -12.957664    -2.494010    -17.790249    13.272985    -0.600495    -52.290314    -1.527848    6.508328    -40.990753    -11.685993    -0.005025    -4.015139    28.141201    -23.009451    39.480820    5.541052    -22.078104    105.090279    13.712346    -25.330179    30.020643    34.063477    -23.592896    22.787350    -35.800236    44.786964    5.220192    -0.600235    -18.704105    48.282536    0.000000    0.000000    0.000000    -40.011047    -16.995457    -48.900593    12.502528    36.461658    -24.871204    4.402853    3.388416    -15.614437    0.000000    0.000000    0.000000    
25.466257    146.872406    64.279388    6.924726    0.251690    -77.949203    1.856797    0.539525    3.984865    -1.740653    1.040283    1.346909    14.995996    4.276198    12.619082    -11.059240    1.535555    10.058516    8.800875    4.198285    -12.457294    -12.961729    -2.452802    -17.810968    13.309408    -0.653108    -52.182903    -1.529882    6.459966    -41.030949    -11.673785    0.012637    -4.018550    28.170153    -23.000639    39.522026    5.524585    -22.097073    105.092094    13.722651    -25.326385    30.024626    34.098316    -23.619736    22.800598    -35.844101    44.825882    5.237353    -0.574037    -18.708645    48.304684    0.000000    0.000000    0.000000    -40.021072    -17.023796    -48.892052    12.530044    36.504784    -24.726278    4.407918    3.316662    -15.768845    0.000000    0.000000    0.000000    
25.462610    146.844360    64.276886    6.943262    0.262020    -77.957428    1.852381    0.520367    3.961480    -1.724265    1.048144    1.339005    14.977132    4.258815    12.610406    -11.021155    1.572678    10.057643    8.810096    4.187520    -12.456501    -12.967491    -2.428808    -17.830990    13.367566    -0.678358    -52.076160    -1.590019    6.470531    -41.026272    -11.653783    0.019854    -4.011899    28.210165    -23.025000    39.542183    5.555774    -22.039284    105.111938    13.662014    -25.328985    29.982971    34.131779    -23.650074    22.827589    -35.874062    44.865952    5.246135    -0.562094    -18.718473    48.322937    0.000000    0.000000    0.000000    -40.051693    -17.055355    -48.875801    12.588460    36.562622    -24.770468    4.409708    3.290956    -15.777662    0.000000    0.000000    0.000000    
25.458523    146.814865    64.272400    6.950264    0.273272    -77.965240    1.849179    0.518829    3.944738    -1.712319    1.047668    1.333290    14.980934    4.247040    12.603355    -11.004370    1.599413    10.052940    8.825671    4.190887    -12.461343    -12.976220    -2.398182    -17.853756    13.390961    -0.745962    -52.004955    -1.628318    6.418062    -40.968231    -11.617191    0.017918    -4.026026    28.255461    -23.041098    39.569706    5.596882    -21.954340    105.127045    13.621201    -25.308064    29.972887    34.169731    -23.669355    22.839575    -35.920284    44.903324    5.256320    -0.536352    -18.727373    48.343075    0.000000    0.000000    0.000000    -40.075417    -17.075378    -48.877945    12.627412    36.621521    -24.753801    4.404932    3.261962    -15.798888    0.000000    0.000000    0.000000    
25.453791    146.788727    64.264496    6.955217    0.286455    -77.966995    1.840635    0.522427    3.923410    -1.681602    1.035702    1.325735    14.963976    4.258955    12.594376    -10.990352    1.607294    10.049652    8.821628    4.191989    -12.464508    -12.977694    -2.378499    -17.877569    13.567139    -0.718652    -51.930138    -1.806660    6.584958    -40.837063    -11.603179    0.031716    -4.025333    28.284927    -23.011511    39.572739    5.590704    -21.947102    105.133240    13.654904    -25.282967    30.001616    34.205429    -23.690153    22.863724    -35.943958    44.943909    5.260121    -0.526325    -18.741129    48.347530    0.000000    0.000000    0.000000    -40.094784    -17.092226    -48.864414    12.673564    36.682663    -24.799517    4.419686    3.225330    -15.781335    0.000000    0.000000    0.000000    
25.446924    146.757294    64.259926    6.948118    0.291989    -77.960876    1.832538    0.530813    3.901299    -1.661091    1.029492    1.318119    14.945008    4.253501    12.582357    -10.956496    1.639628    10.045862    8.824203    4.207588    -12.485385    -12.978107    -2.363472    -17.898571    13.606492    -0.729744    -51.842960    -1.767842    6.566826    -40.880222    -11.572736    0.059914    -4.036676    28.207193    -22.729307    39.517536    5.413278    -22.316334    105.142296    13.800928    -25.390621    30.060799    34.230671    -23.701775    22.876184    -35.971214    44.986835    5.241892    -0.497495    -18.752716    48.368488    0.000000    0.000000    0.000000    -40.122761    -17.087795    -48.856506    12.728659    36.739983    -24.817303    4.405293    3.193301    -15.787802    0.000000    0.000000    0.000000    
25.439198    146.724457    64.254173    6.932253    0.298100    -77.954300    1.813769    0.541343    3.883447    -1.662018    1.026009    1.312051    15.035054    4.300769    12.580148    -11.010459    1.621794    10.031258    8.896047    4.230858    -12.510173    -13.017963    -2.380616    -17.940744    13.697613    -0.606893    -51.801300    -1.595165    6.661164    -40.727200    -11.481479    0.060566    -4.020233    28.159275    -22.668715    39.466934    5.417627    -22.350666    105.134346    13.831150    -25.420681    30.064219    34.258575    -23.708311    22.892826    -36.002449    45.039536    5.236838    -0.461429    -18.760586    48.370911    0.000000    0.000000    0.000000    -40.148415    -17.080517    -48.833172    12.789509    36.808010    -24.844248    4.403488    3.144070    -15.797248    0.000000    0.000000    0.000000    
25.435671    146.691681    64.248375    6.925967    0.300310    -77.944984    1.814367    0.554758    3.869476    -1.637794    1.027636    1.307388    14.966448    4.290133    12.572180    -10.950100    1.619687    10.036698    8.846528    4.225326    -12.528094    -12.973282    -2.332162    -17.964729    13.588715    -0.662641    -51.706772    -1.396219    6.466742    -40.861221    -11.503033    0.074413    -4.060595    28.220884    -22.642366    39.482323    5.443388    -22.285841    105.172310    13.730659    -25.427082    29.978533    34.276688    -23.723846    22.913704    -36.012100    45.087326    5.230556    -0.450357    -18.776152    48.366032    0.000000    0.000000    0.000000    -40.179035    -17.082270    -48.832684    12.813627    36.882435    -24.791203    4.437686    3.098010    -15.843854    0.000000    0.000000    0.000000    
25.432289    146.657639    64.239540    6.910614    0.308161    -77.936897    1.807187    0.565311    3.855546    -1.620293    1.038429    1.302735    14.985702    4.293973    12.571423    -10.971799    1.618802    10.031418    8.851749    4.228747    -12.539761    -12.970177    -2.300147    -18.000738    13.644454    -0.660452    -51.637085    -1.359395    6.473198    -40.924473    -11.477868    0.093537    -4.084891    28.245480    -22.624693    39.481129    5.436581    -22.242924    105.165649    13.674767    -25.392908    29.953295    34.308498    -23.731401    22.931318    -36.042126    45.129856    5.231239    -0.422175    -18.781860    48.376938    0.000000    0.000000    0.000000    -40.199020    -17.078503    -48.809010    12.869522    36.947098    -24.813950    4.433228    3.051690    -15.857157    0.000000    0.000000    0.000000    
25.430304    146.624557    64.235168    6.891119    0.304163    -77.925133    1.803303    0.587128    3.840420    -1.631625    1.036865    1.297913    15.025378    4.320016    12.568756    -11.003107    1.598215    10.021759    8.876830    4.231090    -12.562099    -12.975890    -2.289186    -18.028011    13.670185    -0.653790    -51.575447    -1.366486    6.486879    -40.987644    -11.444125    0.098656    -4.089696    28.288536    -22.657652    39.456486    5.512911    -22.098003    105.185509    13.570662    -25.375605    29.903801    34.322704    -23.736105    22.936996    -36.068546    45.174805    5.231582    -0.397573    -18.800022    48.379921    0.000000    0.000000    0.000000    -40.234802    -17.070974    -48.765884    12.936998    37.020805    -24.803093    4.434045    2.993569    -15.920999    0.000000    0.000000    0.000000    
25.427168    146.589920    64.231697    6.873183    0.302749    -77.913727    1.793300    0.597893    3.829975    -1.622027    1.050200    1.294537    15.041640    4.323999    12.572916    -11.013018    1.596859    10.023449    8.883089    4.241102    -12.578465    -12.971846    -2.280526    -18.067947    13.655675    -0.681336    -51.559040    -1.366917    6.448754    -40.883141    -11.417319    0.110870    -4.103934    28.307808    -22.673483    39.434383    5.576084    -21.998295    105.200485    13.541033    -25.363564    29.897514    34.341518    -23.738083    22.940039    -36.097256    45.213043    5.236422    -0.396674    -18.830248    48.378517    0.000000    0.000000    0.000000    -40.262909    -17.065184    -48.732647    12.985385    37.083279    -24.797298    4.421053    2.946040    -15.962540    0.000000    0.000000    0.000000    
